<svg width="317" height="100" viewBox="0 0 317 100" fill="none" xmlns="http://www.w3.org/2000/svg">
<g clip-path="url(#clip0_585_507)">
<path d="M18.8209 96.341C12.9242 93.9038 7.38799 90.674 2.36573 86.7409L0.569997 75.0014C0.46489 74.5612 0.460011 74.1031 0.555719 73.6608C0.651427 73.2184 0.845281 72.8032 1.12299 72.4457C1.37582 72.1146 1.69909 71.8438 2.06945 71.6527C2.43981 71.4617 2.84802 71.3551 3.2646 71.3409C3.73848 71.334 4.20893 71.4222 4.6481 71.6001C5.08728 71.7781 5.48627 72.0422 5.82147 72.3769C11.9731 78.1534 18.9089 83.0352 26.4242 86.8785C33.705 90.5636 40.3878 92.4051 46.4728 92.4027C50.8968 92.4027 54.3537 91.3675 56.8436 89.2971C59.3334 87.2267 60.5776 84.3951 60.5763 80.8023C60.5839 77.5138 59.5159 74.3128 57.5348 71.6864C55.2351 68.6609 52.4839 66.0061 49.3776 63.8148C45.9664 61.3286 40.8509 57.9215 34.0309 53.5935C26.6546 48.8059 20.9166 44.5931 16.8171 40.9551C12.7175 37.3172 9.81327 33.9556 8.10434 30.8704C6.41651 27.852 5.53591 24.45 5.54748 20.9926C5.55156 17.3851 6.60853 13.8571 8.58897 10.8406C10.6143 7.66363 13.7024 5.06222 17.8532 3.03634C21.999 1.01314 27.1603 0.000359967 33.3371 -0.00198364C37.8626 0.0109932 42.3686 0.591561 46.7493 1.72609C51.1935 2.8506 55.5042 4.44786 59.6075 6.49049L61.2665 17.4003C61.3705 17.8364 61.3811 18.2895 61.2976 18.7299C61.2141 19.1704 61.0384 19.5882 60.7819 19.956C60.5466 20.2891 60.2364 20.5625 59.8763 20.7544C59.5162 20.9462 59.1162 21.0512 58.7082 21.0609C58.2653 21.0804 57.8231 21.0111 57.4075 20.8571C56.9919 20.703 56.6114 20.4673 56.2885 20.1639C50.9088 15.9283 45.036 12.358 38.7982 9.53082C32.6687 6.76871 27.3921 5.38765 22.9684 5.38765C19.3749 5.38765 16.5173 6.23956 14.3954 7.94336C13.375 8.73102 12.5553 9.74833 12.003 10.9124C11.4507 12.0765 11.1814 13.3545 11.2172 14.6422C11.2172 18.1419 13.3136 21.9632 17.5063 26.106C21.699 30.2488 28.2209 35.0365 37.0719 40.469C44.3527 44.9818 50.0212 49.0099 54.0776 52.5535C58.1339 56.097 60.991 59.4815 62.649 62.707C64.3257 65.9991 65.1801 69.6476 65.1395 73.3411C65.2226 78.1597 64.0553 82.9176 61.7512 87.1517C59.5032 91.1937 56.1129 94.4846 52.0038 96.6132C47.7642 98.8687 42.7406 99.9965 36.9331 99.9965C30.7128 99.9868 24.5563 98.743 18.8209 96.3375" fill="white"/>
<path d="M88.5056 95.5098C83.5799 92.5748 79.5794 88.3156 76.9605 83.2184C74.2387 78.0149 72.8794 72.0526 72.8824 65.3315C72.8248 58.6649 74.3656 52.0814 77.3757 46.1313C80.175 40.4605 84.4191 35.6256 89.6814 32.1123C94.7672 28.6952 100.766 26.8897 106.895 26.9316C112.057 26.9316 116.619 28.06 120.583 30.3169C124.451 32.4793 127.654 35.6552 129.848 39.5022C132.035 43.2793 133.18 47.5686 133.166 51.9322C133.166 54.4185 132.797 56.2599 132.06 57.4564C131.447 58.5552 130.431 59.3728 129.225 59.7364C127.709 60.101 126.152 60.2638 124.593 60.2206H80.9014V57.0436H126.253L120.997 59.2533L121.135 56.3506C121.127 52.2514 120.402 48.1852 118.992 44.3354C117.683 40.5572 115.421 37.1797 112.425 34.5289C109.575 31.9889 105.874 30.6091 102.055 30.662C98.4445 30.6046 94.9264 31.8004 92.1006 34.0453C89.2417 36.3025 87.0297 39.3874 85.4646 43.2999C83.8441 47.5059 83.0465 51.9834 83.1149 56.4897C83.1371 62.222 84.2635 67.8965 86.4328 73.2035C88.5058 78.5323 91.8522 83.2736 96.1802 87.0141C100.414 90.6791 105.858 92.6472 111.46 92.5383C114.951 92.522 118.404 91.8173 121.622 90.4647C124.992 89.0806 128.066 87.0652 130.678 84.5271L132.061 86.0453C128.28 90.5581 124.223 94.0114 119.892 96.4052C115.397 98.839 110.349 100.075 105.237 99.995C99.352 100.073 93.5609 98.5189 88.5071 95.5063" fill="white"/>
<path d="M146.99 2.62451L158.189 0.691528V98.3427H146.99V2.62451Z" fill="white"/>
<path d="M177.547 2.62451L188.746 0.691528V98.3427H177.547V2.62451Z" fill="white"/>
<path d="M218.609 95.5098C213.684 92.5748 209.683 88.3157 207.064 83.2184C204.343 78.0149 202.983 72.0526 202.986 65.3315C202.929 58.6649 204.469 52.0814 207.48 46.1313C210.279 40.4603 214.523 35.6252 219.785 32.1118C224.871 28.6947 230.87 26.8892 236.999 26.9311C242.16 26.9311 246.723 28.0596 250.687 30.3165C254.555 32.4788 257.758 35.6547 259.951 39.5017C262.139 43.2788 263.284 47.5681 263.269 51.9317C263.269 54.418 262.901 56.2594 262.163 57.456C261.551 58.5547 260.534 59.3723 259.329 59.736C257.813 60.1005 256.256 60.2633 254.697 60.2201H211.005V57.0431H256.356L251.1 59.2528L251.239 56.3501C251.23 52.2509 250.505 48.1847 249.096 44.3349C247.787 40.5567 245.525 37.1792 242.529 34.5284C239.678 31.9884 235.977 30.6086 232.158 30.6615C228.548 30.6041 225.03 31.7999 222.204 34.0448C219.345 36.302 217.133 39.3869 215.568 43.2994C213.947 47.5054 213.15 51.9829 213.218 56.4892C213.24 62.2215 214.367 67.896 216.536 73.203C218.609 78.5318 221.955 83.2731 226.283 87.0136C230.518 90.6786 235.961 92.6467 241.563 92.5378C245.054 92.5215 248.507 91.8169 251.725 90.4642C255.096 89.0801 258.169 87.0647 260.781 84.5267L262.164 86.0448C258.383 90.5576 254.327 94.0109 249.995 96.4047C245.5 98.8385 240.453 100.075 235.34 99.9945C229.455 100.072 223.664 98.5184 218.61 95.5058" fill="white"/>
<path d="M277.372 48.7573L275.16 29.2829L286.22 27.487L288.57 47.2371V98.3432H277.372V48.7573ZM300.877 32.8741C305.855 29.1913 311.063 27.3499 316.5 27.3499V35.6363C316.5 37.2031 316.017 38.3766 315.05 39.1567C314.536 39.5541 313.944 39.8395 313.313 39.9946C312.681 40.1497 312.025 40.171 311.385 40.0571C306.846 39.7692 302.298 40.4519 298.044 42.0594C293.63 43.762 289.743 46.5961 286.773 50.2764V48.342C291.197 41.7129 295.899 36.557 300.877 32.8741Z" fill="white"/>
</g>
<defs>
<clipPath id="clip0_585_507">
<rect width="316" height="100" fill="white" transform="translate(0.5)"/>
</clipPath>
</defs>
</svg>
